<svg xmlns="http://www.w3.org/2000/svg" width="29" height="29" viewBox="0 0 29 29" fill="none">
    <path fill-rule="evenodd" clip-rule="evenodd" d="M13.6247 6.86006C13.6088 6.8499 13.5931 6.83939 13.5776 6.82852C11.1 5.09237 7.62283 4.3056 5.03472 4.01315C3.75383 3.86841 2.70801 4.93803 2.70801 6.25771V19.3999C2.70801 20.7196 3.75383 21.7896 5.03472 21.9344C7.62283 22.2268 11.1 23.0136 13.5776 24.7497C13.5931 24.7606 13.6088 24.7711 13.6247 24.7813V6.86006ZM15.1247 24.7813C15.1405 24.7711 15.1562 24.7606 15.1717 24.7497C17.6494 23.0136 21.1265 22.2268 23.7146 21.9344C24.9955 21.7896 26.0413 20.7196 26.0413 19.3999V6.25771C26.0413 4.93803 24.9955 3.86841 23.7146 4.01315C21.1265 4.3056 17.6494 5.09237 15.1717 6.82852C15.1562 6.83939 15.1405 6.8499 15.1247 6.86006V24.7813ZM5.46684 10.0156C5.53024 9.60629 5.91346 9.32585 6.32279 9.38925C7.83653 9.62368 9.53901 10.0152 11.1452 10.6363C11.5315 10.7857 11.7236 11.22 11.5742 11.6064C11.4248 11.9927 10.9905 12.1848 10.6042 12.0354C9.12515 11.4634 7.53296 11.0945 6.09322 10.8716C5.68389 10.8082 5.40345 10.425 5.46684 10.0156ZM6.32279 14.0559C5.91346 13.9925 5.53024 14.273 5.46684 14.6823C5.40345 15.0916 5.68389 15.4748 6.09322 15.5382C6.81905 15.6507 7.58552 15.8004 8.35787 15.9953C8.7595 16.0966 9.16722 15.8532 9.26855 15.4516C9.36988 15.0499 9.12644 14.6422 8.72481 14.5409C7.90186 14.3332 7.08911 14.1746 6.32279 14.0559Z" fill="currentColor"/>
</svg>