<svg xmlns="http://www.w3.org/2000/svg" width="29" height="29" viewBox="0 0 29 29" fill="none">
    <path fill-rule="evenodd" clip-rule="evenodd" d="M19.7518 26.1663H9.9976C7.30406 26.1663 5.12052 24.0826 5.12052 21.5122V15.8216C5.12052 14.9953 4.77656 14.2029 4.16431 13.6186C2.74578 12.2649 2.93019 10.0221 4.5526 8.89608L12.0061 3.72317C13.7163 2.53629 16.0331 2.53629 17.7432 3.72317L25.1967 8.89607C26.8192 10.0221 27.0036 12.2649 25.585 13.6186C24.9728 14.2029 24.6288 14.9953 24.6288 15.8216V21.5122C24.6288 24.0826 22.4453 26.1663 19.7518 26.1663ZM12.5413 20.6247C12.0581 20.6247 11.6663 21.0164 11.6663 21.4997C11.6663 21.9829 12.0581 22.3747 12.5413 22.3747H17.208C17.6913 22.3747 18.083 21.9829 18.083 21.4997C18.083 21.0164 17.6913 20.6247 17.208 20.6247H12.5413Z" fill="currentColor"/>
</svg>