<svg width="320" height="320" viewBox="0 0 320 320" fill="none" xmlns="http://www.w3.org/2000/svg">
<rect width="320" height="320" fill="black"/>
<rect width="320" height="320" fill="black" fill-opacity="0.2"/>
<rect width="320" height="320" fill="black" fill-opacity="0.2"/>
<path d="M193.733 7H156.166C137.114 7 121.666 22.4483 121.666 41.5V67.5666C121.666 70.1043 123.728 72.1666 126.266 72.1666H162.299C181.351 72.1666 198.333 56.7183 198.333 37.6666V11.6C198.333 9.06233 196.27 7 193.733 7ZM149.665 53.3833H142.749V50.4623L149.665 41.707V53.3833ZM174.949 53.3833H168.034V34.5386L158.719 46.4833H158.451L149.672 34.9066L142.757 25.7833H151.275L158.458 35.336H158.727L165.91 25.7833H174.957V53.3833H174.949Z" fill="#07C86B"/>
<path d="M256.324 302.104C246.051 303.929 232.956 303.109 225.765 299.413L223.02 283.942C229.015 286.02 238.468 289.178 249.884 287.154C263.96 284.655 270.354 276.459 267.586 260.858L266.781 256.296C265.003 264.722 257.106 271.093 246.074 273.048C225.91 276.628 211.198 263.02 207.848 244.121C204.359 224.464 214.303 207.521 234.719 203.902C243.214 202.392 252.514 204.669 258.77 211.147L258.839 211.53L260.334 200.797L275.008 198.19V118.158C275.008 99.1065 259.559 83.6582 240.508 83.6582H79.5C64.3123 83.6582 51.4477 93.4869 46.84 107.118L58.9763 104.964C87.2434 99.9499 107.384 116.418 111.777 141.196C116.177 165.983 102.937 188.369 74.6623 193.383L45 198.658V279.166C45 298.217 60.4483 313.666 79.5 313.666H241.65C254.285 313.666 265.294 306.858 271.305 296.73C267.165 299.237 262.174 301.069 256.324 302.112V302.104ZM123.537 143.887C124.572 128.5 135.221 116.15 151.643 113.229C171.446 109.733 188.374 120.474 192.261 146.739L158.888 152.673L142.834 155.525C145.111 163.345 153.23 167.807 162.315 166.197C168.939 165.024 173.47 161.39 175.632 156.813L190.536 160.516C186.741 170.475 177.196 178.571 164.776 180.779C144.605 184.367 127.654 173.511 124.066 153.317C123.491 150.097 123.33 146.923 123.537 143.887ZM67.8083 301.483L51.831 211.438L109.783 201.157L112.735 217.771L73.1673 224.794L76.7017 244.704L109.293 238.923L112.175 255.154L79.5843 260.934L83.249 281.604L122.817 274.581L125.768 291.195L67.816 301.476L67.8083 301.483ZM185.108 280.469L178.737 244.581C176.468 231.77 168.732 229.478 161.756 230.72C153 232.269 147.887 238.808 149.934 250.347L156.19 285.606L137.928 288.849L126.159 222.524L141.378 219.826L145.855 228.842C148.822 221.252 154.825 216 164.592 214.267C178.538 211.791 192.905 218.269 196.509 238.563L203.37 277.241L185.108 280.477V280.469ZM244.763 145.352C242.838 134.519 206.345 148.181 202.082 124.146C199.828 111.442 210.332 101.874 224.653 99.3289C240.715 96.4769 253.357 103.998 255.619 115.291L238.898 118.771C237.479 114.394 233.125 111.573 226.777 112.7C222.169 113.52 218.412 116.241 219.049 119.852C220.95 130.563 257.98 116.28 262.419 141.319C264.765 154.521 254.231 163.966 237.916 166.857C222.476 169.594 207.234 165.492 203.945 149.89L221.019 146.218C222.491 151.608 228.486 154.268 235.954 152.942C241.681 151.922 245.414 149.078 244.755 145.344L244.763 145.352Z" fill="#FC4C00"/>
<path d="M172.16 137.609C170.297 130.088 163.121 125.856 154.151 127.443C145.434 128.984 139.799 135.516 140.512 143.221L172.16 137.609Z" fill="#FC4C00"/>
<path d="M241.428 219.595C230.518 221.527 224.239 230.359 226.125 241.016C228.034 251.795 236.997 258.051 247.906 256.119C258.433 254.248 264.796 245.14 262.902 234.491C261.032 223.965 251.947 217.732 241.42 219.595H241.428Z" fill="#FC4C00"/>
<path d="M93.714 144.41C90.402 125.726 77.683 118.481 61.8667 121.287L50.75 123.265L60.6477 179.055L71.7643 177.077C87.5807 174.271 97.026 163.086 93.714 144.41V144.41Z" fill="#FC4C00"/>
</svg>
