<svg xmlns="http://www.w3.org/2000/svg" width="17" height="24" viewBox="0 0 17 24" fill="none">
    <path fill-rule="evenodd" clip-rule="evenodd" d="M2.79134 5.49967H14.458C15.7467 5.49967 16.7913 4.45501 16.7913 3.16634C16.7913 1.87768 15.7467 0.833008 14.458 0.833008H2.79134C1.50267 0.833008 0.458008 1.87768 0.458008 3.16634C0.458008 4.45501 1.50268 5.49967 2.79134 5.49967ZM0.78228 11.7159L2.23127 7.21165C2.41437 7.23677 2.60134 7.24974 2.79134 7.24974H14.458C14.648 7.24974 14.835 7.23677 15.0181 7.21165L16.4671 11.7159C17.0468 13.1798 16.8414 14.811 15.9136 16.1127L9.73518 23.6134C9.66668 23.7096 9.58722 23.7931 9.49967 23.8642V14.6634C10.3548 14.3173 10.958 13.4789 10.958 12.4997C10.958 11.211 9.91334 10.1663 8.62467 10.1663C7.33601 10.1663 6.29134 11.211 6.29134 12.4997C6.29134 13.4789 6.89456 14.3173 7.74967 14.6634V23.8642C7.66213 23.7931 7.58267 23.7096 7.51417 23.6134L1.33579 16.1127C0.407929 14.811 0.202571 13.1798 0.78228 11.7159Z" fill="currentColor"/>
</svg>